<?xml version="1.0" encoding="utf-8"?>
<!-- Generator: Adobe Illustrator 18.1.0, SVG Export Plug-In . SVG Version: 6.00 Build 0)  -->
<svg version="1.1" id="Layer_1" xmlns="http://www.w3.org/2000/svg" xmlns:xlink="http://www.w3.org/1999/xlink" x="0px" y="0px"
	 viewBox="0 220.9 133.1 131.4" enable-background="new 0 220.9 133.1 131.4" xml:space="preserve">
<g>
	<path fill="#3E9E84" d="M0.4,334.3v-66h5.7v24.3c2.5-3.6,5.7-5.4,8.8-5.4c4.7,0,10.1,1.8,10.1,22.3v3.6c0,19.8-5.4,21.9-9.7,21.9
		c-2.9,0-6.5-1.1-9.2-5.4v4.4H0.4V334.3z M19.3,313.4v-3.6c0-17.3-2.7-18.2-5.5-18.2c-2.7,0-5.3,1.9-7.7,4.6v30.2
		c2.3,2.7,5.2,4.7,7.5,4.7C16.5,331,19.3,330.5,19.3,313.4z"/>
	<path fill="#3E9E84" d="M27.1,312.5v-2.4c0-10.7,0-22.7,12.2-22.7s12.2,12,12.2,22.7v2.4c0,11.5,0,22.7-12.2,22.7
		C27.1,335.3,27.1,324,27.1,312.5z M32.8,310.1v2.4c0,13.8,1,18.9,6.4,18.9s6.4-5.1,6.4-18.9v-2.4c0-13.6-0.8-18.9-6.4-18.9
		C33.5,291.2,32.8,296.6,32.8,310.1z"/>
	<path fill="#3E9E84" d="M54.2,324.4v-36H60v36.1c0,4.9,2.2,6.5,4.9,6.5c2.4,0,5.3-1.8,7.6-4.7v-38h5.7v45.9h-5.7v-4.4
		c-2.6,3.7-6.2,5.4-9.8,5.4C58.7,335.3,54.2,331.8,54.2,324.4z"/>
	<path fill="#3E9E84" d="M81.2,334.3v-45.9h5.7v4.4c2.6-3.7,6.2-5.4,9.8-5.4c4.1,0,8.6,3.5,8.6,10.9v36h-5.8v-36.1
		c0-4.9-2.2-6.5-4.9-6.5c-2.4,0-5.3,1.8-7.6,4.7v38H81.2z"/>
	<path fill="#3E9E84" d="M126.7,334.3v-4.4c-2.7,4.2-6.4,5.4-9.2,5.4c-4.3,0-9.7-2.1-9.7-21.9v-3.6c0-20.6,5.4-22.3,10.1-22.3
		c3.1,0,6.4,1.8,8.8,5.4v-24.5h5.7v65.9h-5.7V334.3z M126.7,326.4v-30.2c-2.4-2.6-5-4.6-7.7-4.6c-2.8,0-5.5,0.8-5.5,18.2v3.6
		c0,17.2,2.8,17.7,5.7,17.7C121.6,331,124.5,329.1,126.7,326.4z"/>
</g>
<rect x="5.6" y="340.3" fill="none" width="120.2" height="6.1"/>
<polygon fill="#877C68" points="126.6,346 6.4,346 6.4,339.9 0,339.9 0,352.3 133.1,352.3 133.1,339.9 126.6,339.9 "/>
<rect x="6.4" y="226.6" fill="none" width="120.2" height="35.7"/>
<polygon fill="#877C68" points="6.4,227.4 126.6,227.4 126.6,263 133.1,263 133.1,220.9 0,220.9 0,263 6.4,263 "/>
</svg>
