<?xml version="1.0" encoding="utf-8"?>
<!-- Generator: Adobe Illustrator 18.1.0, SVG Export Plug-In . SVG Version: 6.00 Build 0)  -->
<svg version="1.1" id="Layer_1" xmlns="http://www.w3.org/2000/svg" xmlns:xlink="http://www.w3.org/1999/xlink" x="0px" y="0px"
	 viewBox="456 414 108 108" enable-background="new 456 414 108 108" xml:space="preserve">
<circle fill="#877C68" cx="510" cy="468" r="54"/>
<g>
	<path fill="#FFFFFF" d="M495.4,490.1c2.5,1.6,8.5,4.2,14.7,4.2c11.5,0,15.1-7.3,15-12.9c-0.1-9.3-8.5-13.3-17.1-13.3h-5v-6.7h5
		c6.5,0,14.8-3.4,14.8-11.2c0-5.3-3.4-10-11.6-10c-5.3,0-10.4,2.3-13.3,4.4l-2.3-6.5c3.5-2.5,10.2-5.1,17.3-5.1
		c13.1,0,19,7.8,19,15.8c0,6.8-4.1,12.6-12.2,15.6v0.2c8.2,1.6,14.8,7.8,14.8,17c0,10.6-8.3,19.9-24.2,19.9c-7.4,0-14-2.3-17.2-4.5
		L495.4,490.1z"/>
</g>
</svg>
