<?xml version="1.0" encoding="utf-8"?>
<!-- Generator: Adobe Illustrator 18.1.0, SVG Export Plug-In . SVG Version: 6.00 Build 0)  -->
<svg version="1.1" baseProfile="tiny" id="Layer_1" xmlns="http://www.w3.org/2000/svg" xmlns:xlink="http://www.w3.org/1999/xlink"
	 x="0px" y="0px" viewBox="467.5 1182 793.9 516" xml:space="preserve">
<path fill="#877C68" d="M785.8,1317.8c0,29.2-6.9,56.3-18.7,78.4c-0.9,1.8-1.9,3.5-2.9,5.3c-1,1.7-2.1,3.4-3.1,5.1
	c-18.6,28.8-46.2,47-76.8,47c-30.2,0-57.4-17.7-76-45.8c-1.1-1.7-2.2-3.4-3.2-5.1c-1-1.7-2-3.5-3-5.2
	c-12.2-22.4-19.4-49.9-19.4-79.7c0-74.9,45.6-135.8,101.6-135.8C740.2,1182,785.8,1242.9,785.8,1317.8z"/>
<path fill="#877C68" d="M1137.1,1317.8c0,22-3.9,42.8-10.9,61.2c-1.5,3.9-3.1,7.7-4.9,11.4c-1.8,3.8-3.8,7.5-5.9,11.1
	c-18.6,31.7-47.5,52.1-80,52.1c-32,0-60.6-19.9-79.2-50.8c-2.1-3.5-4.1-7.2-6-11c-1.8-3.7-3.4-7.4-5-11.3
	c-7.3-18.7-11.4-40-11.4-62.5c0-74.9,45.6-135.8,101.6-135.8C1091.5,1182,1137.1,1242.9,1137.1,1317.8z"/>
<path fill="#877C68" d="M788,1667.9c0-71.2,19.2-138.8,54.6-193.4c-20.1-26.4-44.2-47.8-71.1-62.5c-20.8,32.7-52.3,53.5-87.3,53.5
	c-34.6,0-65.6-20.3-86.5-52.1c-76.6,43.3-130.2,141.1-130.2,254.6c0,10.2,0.4,20.2,1.3,30.1h320.4C788.4,1688.1,788,1678,788,1667.9
	z"/>
<path fill="#877C68" d="M1261.4,1667.9c0-117-55.8-217.5-135.5-261.1c-20.7,35.6-53.6,58.6-90.5,58.6c-36.4,0-68.9-22.4-89.6-57.2
	c-31.4,17.8-59,44.5-80.8,77.5c-1.2,1.8-2.4,3.7-3.5,5.5c-1.2,1.9-2.3,3.8-3.5,5.7c-28.3,47.6-45.1,106.8-45.1,170.9
	c0,10.2,0.4,20.2,1.2,30.1h446C1261,1688.1,1261.4,1678.1,1261.4,1667.9z"/>
</svg>
