<?xml version="1.0" encoding="utf-8"?>
<!-- Generator: Adobe Illustrator 18.1.0, SVG Export Plug-In . SVG Version: 6.00 Build 0)  -->
<svg version="1.1" id="Layer_1" xmlns="http://www.w3.org/2000/svg" xmlns:xlink="http://www.w3.org/1999/xlink" x="0px" y="0px"
	 viewBox="317.4 1191.1 792 792" enable-background="new 317.4 1191.1 792 792" xml:space="preserve">
<rect x="317.4" y="1191.1" fill="#3E9E84" width="792" height="792"/>
<g>
	<path d="M618.4,1704.9c13.6,8.3,43.7,21.9,76.2,21.9c59.6,0,78.4-37.7,77.7-66.4c-0.8-48.3-43.7-68.6-89-68.6h-25.6V1557h25.6
		c33.9,0,76.9-17.3,76.9-58.1c0-27.2-17.3-52-60.3-52c-27.2,0-53.6,12.1-68.6,22.6l-12.1-33.9c18.1-13.6,52.8-26.4,89.8-26.4
		c67.9,0,98.1,40,98.1,82.2c0,35.5-21.1,65.6-63.4,80.7v0.8c42.2,8.3,76.9,40,76.9,88.3c0,55.1-43,103.3-125.2,103.3
		c-38.5,0-72.4-12.1-89-23.4L618.4,1704.9z"/>
</g>
</svg>
