<?xml version="1.0" encoding="utf-8"?>
<!-- Generator: Adobe Illustrator 18.1.0, SVG Export Plug-In . SVG Version: 6.00 Build 0)  -->
<svg version="1.1" id="Layer_1" xmlns="http://www.w3.org/2000/svg" xmlns:xlink="http://www.w3.org/1999/xlink" x="0px" y="0px"
	 viewBox="130.1 635.1 537 537" enable-background="new 130.1 635.1 537 537" xml:space="preserve">
<path fill="#EAB08D" d="M646.1,1007.7v57.9c0,11.6-9.4,21.1-21.1,21.1H595C616.4,1063.7,633.8,1037.1,646.1,1007.7z"/>
<path fill="#EAB08D" d="M646.1,741.8v57.7c-8.7-20.7-19.9-40-33.3-57.7H646.1z"/>
<path fill="#EAB08D" d="M153.2,741.8h31.1c-12.3,16.2-22.8,33.9-31.1,52.7V741.8z"/>
<path fill="#EAB08D" d="M202.2,1086.6h-27.9c-11.6,0-21.1-9.4-21.1-21.1v-52.9C165.4,1040,182,1065,202.2,1086.6z"/>
<path fill="#FFFFFF" d="M655.1,824.2c7.8,25.1,11.9,51.8,11.9,79.4c0,27.7-4.2,54.3-11.9,79.4V824.2z"/>
<path fill="#31A18A" d="M655.1,983v82.5c0,16.6-13.5,30.1-30.1,30.1h-38.8c3-2.9,5.9-5.9,8.8-9h30.1c11.6,0,21.1-9.4,21.1-21.1
	v-57.9C649.5,999.7,652.5,991.4,655.1,983z"/>
<path fill="#31A18A" d="M655.1,824.2V983c-2.6,8.4-5.6,16.7-9,24.7V799.5C649.5,807.5,652.5,815.8,655.1,824.2z"/>
<path fill="#31A18A" d="M655.1,732.8v91.3c-2.6-8.4-5.6-16.7-9-24.7v-57.7h3.7v-9H655.1z"/>
<path fill="#31A18A" d="M655.1,717.7v15.1h-5.2h-3.7v-15.1c0-11.6-9.4-21.1-21.1-21.1h-55.4c-3.7-3.1-7.6-6.1-11.5-9h66.9
	C641.7,687.7,655.1,701.2,655.1,717.7z"/>
<rect x="646.1" y="732.8" fill="#31A18A" width="3.7" height="9"/>
<path fill="#31A18A" d="M646.1,732.8v9h-33.3c-2.3-3-4.7-6-7.1-9H646.1z"/>
<path fill="#31A18A" d="M625.1,696.7c11.6,0,21.1,9.4,21.1,21.1v15.1h-40.4c-1.7-2-3.4-4-5.1-6h11.6c1.7,0,3.1-1.4,3.1-3.1V709
	c0-1.7-1.4-3.1-3.1-3.1h-14.7c-1.7,0-3.1,1.4-3.1,3.1v11c-2-2.1-4-4.2-6-6.2V709c0-1.7-1.4-3.1-3.1-3.1h-5.1
	c-3.4-3.2-7-6.2-10.5-9.2H625.1z"/>
<path fill="#FFFFFF" d="M615.4,709v14.7c0,1.7-1.4,3.1-3.1,3.1h-11.6c-2-2.3-4.1-4.6-6.2-6.9v-11c0-1.7,1.4-3.1,3.1-3.1h14.7
	C614,705.9,615.4,707.3,615.4,709z"/>
<path fill="#31A18A" d="M612.9,741.8H184.3c2.3-3,4.7-6,7.1-9h274.8h139.6C608.2,735.8,610.6,738.8,612.9,741.8z"/>
<path fill="#31A18A" d="M605.8,732.8H466.2v-8.2c2.7,0,5.2-1.1,7-2.9c1.8-1.8,2.9-4.3,2.9-7c0-5.5-4.4-9.9-9.9-9.9v-8.1h103.5
	c3.6,3,7.1,6,10.5,9.2h-9.6c-1.7,0-3.1,1.4-3.1,3.1v14.7c0,1.7,1.4,3.1,3.1,3.1h14.7c1.7,0,3.1-1.4,3.1-3.1v-10c2,2,4,4.1,6,6.2v3.7
	c0,1.7,1.4,3.1,3.1,3.1h3.1C602.4,728.8,604.1,730.8,605.8,732.8z M560,723.7V709c0-1.7-1.4-3.1-3.1-3.1h-14.7
	c-1.7,0-3.1,1.4-3.1,3.1v14.7c0,1.7,1.4,3.1,3.1,3.1h14.7C558.6,726.8,560,725.4,560,723.7z"/>
<path fill="#FFFFFF" d="M600.7,726.8h-3.1c-1.7,0-3.1-1.4-3.1-3.1V720C596.6,722.2,598.7,724.5,600.7,726.8z"/>
<path fill="#31A18A" d="M600.5,994.8v63.4c0,1.9-1.6,3.5-3.5,3.5H493.1c-1.9,0-3.5-1.6-3.5-3.5v-63.4c0-1.9,1.6-3.5,3.5-3.5H597
	C598.9,991.3,600.5,992.9,600.5,994.8z"/>
<path fill="#31A18A" d="M600.5,883.9v63.4c0,1.9-1.6,3.5-3.5,3.5H493.1c-1.9,0-3.5-1.6-3.5-3.5v-63.4c0-1.9,1.6-3.5,3.5-3.5H597
	C598.9,880.4,600.5,882,600.5,883.9z"/>
<path fill="#31A18A" d="M600.5,775.3v63.4c0,1.9-1.6,3.5-3.5,3.5H493.1c-1.9,0-3.5-1.6-3.5-3.5v-63.4c0-1.9,1.6-3.5,3.5-3.5H597
	C598.9,771.8,600.5,773.3,600.5,775.3z"/>
<path fill="#31A18A" d="M202.2,1086.6H595c-2.9,3.1-5.8,6.1-8.8,9H211C208,1092.7,205,1089.7,202.2,1086.6z"/>
<path fill="#FFFFFF" d="M588.5,713.8v10c0,1.7-1.4,3.1-3.1,3.1h-14.7c-1.7,0-3.1-1.4-3.1-3.1V709c0-1.7,1.4-3.1,3.1-3.1h9.6
	C583,708.4,585.8,711.1,588.5,713.8z"/>
<path fill="#FFFFFF" d="M588.5,709v4.8c-2.7-2.7-5.4-5.3-8.2-7.9h5.1C587.1,705.9,588.5,707.3,588.5,709z"/>
<path fill="#FFFFFF" d="M211,1095.6h375.3c-48.4,47.3-114.6,76.4-187.6,76.4S259.4,1142.9,211,1095.6z"/>
<path fill="#31A18A" d="M569.7,696.7H466.2H227.5c3.7-3.1,7.6-6.1,11.5-9h319.2C562.1,690.6,565.9,693.6,569.7,696.7z"/>
<path fill="#FFFFFF" d="M560,709v14.7c0,1.7-1.4,3.1-3.1,3.1h-14.7c-1.7,0-3.1-1.4-3.1-3.1V709c0-1.7,1.4-3.1,3.1-3.1h14.7
	C558.6,705.9,560,707.3,560,709z"/>
<path fill="#FFFFFF" d="M558.2,687.7H239c44.6-33,99.8-52.6,159.6-52.6S513.6,654.6,558.2,687.7z"/>
<path fill="#31A18A" d="M476.1,1005.9v13.9c0,1.6-1.3,2.9-2.9,2.9h-105c-1.6,0-2.9-1.3-2.9-2.9v-13.9c0-1.6,1.3-2.9,2.9-2.9h105
	C474.8,1003,476.1,1004.3,476.1,1005.9z"/>
<path fill="#31A18A" d="M476.1,970v13.9c0,1.6-1.3,2.9-2.9,2.9h-105c-1.6,0-2.9-1.3-2.9-2.9V970c0-1.6,1.3-2.9,2.9-2.9h105
	C474.8,967,476.1,968.3,476.1,970z"/>
<path fill="#31A18A" d="M476.1,934v13.9c0,1.6-1.3,2.9-2.9,2.9h-105c-1.6,0-2.9-1.3-2.9-2.9V934c0-1.6,1.3-2.9,2.9-2.9h105
	C474.8,931.1,476.1,932.4,476.1,934z"/>
<path fill="#31A18A" d="M476.1,893.5v13.9c0,1.6-1.3,3-2.9,3h-105c-1.6,0-2.9-1.3-2.9-3v-13.9c0-1.6,1.3-2.9,2.9-2.9h105
	C474.8,890.6,476.1,891.9,476.1,893.5z"/>
<path fill="#31A18A" d="M476.1,857.6v13.9c0,1.6-1.3,3-2.9,3H199.4c-1.6,0-2.9-1.3-2.9-3v-13.9c0-1.6,1.3-2.9,2.9-2.9h273.8
	C474.8,854.6,476.1,856,476.1,857.6z"/>
<path fill="#31A18A" d="M476.1,815.6v13.9c0,1.6-1.3,2.9-2.9,2.9H199.4c-1.6,0-2.9-1.3-2.9-2.9v-13.9c0-1.6,1.3-2.9,2.9-2.9h273.8
	C474.8,812.7,476.1,814,476.1,815.6z"/>
<path fill="#31A18A" d="M473.1,1043.4c1.6,0,2.9,1.3,2.9,2.9v13.9c0,1.6-1.3,2.9-2.9,2.9h-105c-1.6,0-2.9-1.3-2.9-2.9v-13.9
	c0-1.6,1.3-2.9,2.9-2.9H473.1z"/>
<path fill="#31A18A" d="M476.1,780.6c0,2.7-1.1,5.2-2.9,7c-1.8,1.8-4.3,2.9-7,2.9H206.3c-5.5,0-9.9-4.4-9.9-9.9c0-2.7,1.1-5.2,2.9-7
	c1.8-1.8,4.3-2.9,7-2.9h259.9C471.7,770.7,476.1,775.2,476.1,780.6z"/>
<path fill="#FFFFFF" d="M466.2,704.8c5.5,0,9.9,4.4,9.9,9.9c0,2.7-1.1,5.2-2.9,7c-1.8,1.8-4.3,2.9-7,2.9H206.3c-2.3,0-4.3-0.8-6-2
	c5.7-6.2,11.6-12.1,17.8-17.8H466.2z"/>
<path fill="#31A18A" d="M466.2,696.7v8.1H218.1c3.1-2.8,6.2-5.5,9.4-8.1H466.2z"/>
<path fill="#EAB08D" d="M365.2,1060.3c0,1.6,1.3,2.9,2.9,2.9h105c1.6,0,2.9-1.3,2.9-2.9v-13.9c0-1.6-1.3-2.9-2.9-2.9h-105
	c-1.6,0-2.9,1.3-2.9,2.9V1060.3z M646.1,799.5v208.3c-12.3,29.3-29.8,56-51.1,78.9H202.2c-20.2-21.6-36.8-46.6-49-74V794.6
	c8.4-18.8,18.8-36.5,31.1-52.7h428.6C626.2,759.5,637.4,778.8,646.1,799.5z M600.5,1058.2v-63.4c0-1.9-1.6-3.5-3.5-3.5H493.1
	c-1.9,0-3.5,1.6-3.5,3.5v63.4c0,1.9,1.6,3.5,3.5,3.5H597C598.9,1061.7,600.5,1060.1,600.5,1058.2z M600.5,947.3v-63.4
	c0-1.9-1.6-3.5-3.5-3.5H493.1c-1.9,0-3.5,1.6-3.5,3.5v63.4c0,1.9,1.6,3.5,3.5,3.5H597C598.9,950.8,600.5,949.3,600.5,947.3z
	 M600.5,838.7v-63.4c0-1.9-1.6-3.5-3.5-3.5H493.1c-1.9,0-3.5,1.6-3.5,3.5v63.4c0,1.9,1.6,3.5,3.5,3.5H597
	C598.9,842.2,600.5,840.6,600.5,838.7z M476.1,1019.8v-13.9c0-1.6-1.3-2.9-2.9-2.9h-105c-1.6,0-2.9,1.3-2.9,2.9v13.9
	c0,1.6,1.3,2.9,2.9,2.9h105C474.8,1022.8,476.1,1021.4,476.1,1019.8z M476.1,983.9V970c0-1.6-1.3-2.9-2.9-2.9h-105
	c-1.6,0-2.9,1.3-2.9,2.9v13.9c0,1.6,1.3,2.9,2.9,2.9h105C474.8,986.8,476.1,985.5,476.1,983.9z M476.1,947.9V934
	c0-1.6-1.3-2.9-2.9-2.9h-105c-1.6,0-2.9,1.3-2.9,2.9v13.9c0,1.6,1.3,2.9,2.9,2.9h105C474.8,950.8,476.1,949.5,476.1,947.9z
	 M476.1,907.4v-13.9c0-1.6-1.3-2.9-2.9-2.9h-105c-1.6,0-2.9,1.3-2.9,2.9v13.9c0,1.6,1.3,3,2.9,3h105
	C474.8,910.4,476.1,909.1,476.1,907.4z M476.1,871.5v-13.9c0-1.6-1.3-2.9-2.9-2.9H199.4c-1.6,0-2.9,1.3-2.9,2.9v13.9
	c0,1.6,1.3,3,2.9,3h273.8C474.8,874.4,476.1,873.1,476.1,871.5z M476.1,829.5v-13.9c0-1.6-1.3-2.9-2.9-2.9H199.4
	c-1.6,0-2.9,1.3-2.9,2.9v13.9c0,1.6,1.3,2.9,2.9,2.9h273.8C474.8,832.5,476.1,831.2,476.1,829.5z M473.2,787.6
	c1.8-1.8,2.9-4.3,2.9-7c0-5.5-4.4-9.9-9.9-9.9H206.3c-2.7,0-5.2,1.1-7,2.9c-1.8,1.8-2.9,4.3-2.9,7c0,5.5,4.4,9.9,9.9,9.9h259.9
	C468.9,790.5,471.4,789.4,473.2,787.6z M344.5,1057.9V896c0-2.2-1.8-4-4-4H200.6c-2.2,0-3.9,1.8-3.9,4v161.9c0,2.2,1.8,3.9,3.9,3.9
	h139.9C342.7,1061.9,344.5,1060.1,344.5,1057.9z"/>
<path fill="#31A18A" d="M344.5,896v161.9c0,2.2-1.8,3.9-4,3.9H200.6c-2.2,0-3.9-1.8-3.9-3.9V896c0-2.2,1.8-4,3.9-4h139.9
	C342.7,892.1,344.5,893.8,344.5,896z"/>
<path fill="#31A18A" d="M174.3,687.7H239c-3.9,2.9-7.7,5.9-11.5,9h-53.3c-11.6,0-21.1,9.4-21.1,21.1v15.1h-3.7v9h-5.2v-24.1
	C144.2,701.2,157.7,687.7,174.3,687.7z"/>
<path fill="#31A18A" d="M174.3,696.7h53.3c-3.2,2.6-6.3,5.4-9.4,8.1h-11.8c-2.7,0-5.2,1.1-7,2.9c-1.8,1.8-2.9,4.3-2.9,7
	c0,3.2,1.5,6.1,3.9,7.9c-3.1,3.3-6,6.8-8.9,10.3h-38.2v-15.1C153.2,706.1,162.6,696.7,174.3,696.7z"/>
<path fill="#FFFFFF" d="M206.3,704.8h11.8c-6.2,5.6-12.1,11.6-17.8,17.8c-2.4-1.8-3.9-4.7-3.9-7.9c0-2.7,1.1-5.2,2.9-7
	C201.1,705.9,203.6,704.8,206.3,704.8z"/>
<path fill="#31A18A" d="M211,1095.6h-36.7c-16.6,0-30.1-13.5-30.1-30.1v-75.9c2.6,7.8,5.6,15.5,9,23v52.9c0,11.6,9.4,21.1,21.1,21.1
	h27.9C205,1089.7,208,1092.7,211,1095.6z"/>
<path fill="#31A18A" d="M206.3,724.6h259.9v8.2H191.4c2.9-3.5,5.9-6.9,8.9-10.3C202,723.8,204.1,724.6,206.3,724.6z"/>
<path fill="#31A18A" d="M153.2,732.8h38.2c-2.4,3-4.8,5.9-7.1,9h-31.1V732.8z"/>
<path fill="#31A18A" d="M153.2,794.6v218.1c-3.3-7.5-6.3-15.2-9-23V817.5C146.9,809.7,149.8,802,153.2,794.6z"/>
<path fill="#31A18A" d="M153.2,741.8v52.7c-3.3,7.5-6.3,15.2-9,23v-75.7h5.2H153.2z"/>
<rect x="149.4" y="732.8" fill="#31A18A" width="3.7" height="9"/>
<path fill="#FFFFFF" d="M144.2,817.5v172.1c-9.1-27-14.1-56-14.1-86.1C130.1,873.5,135.1,844.6,144.2,817.5z"/>
</svg>
