<?xml version="1.0" encoding="utf-8"?>
<!-- Generator: Adobe Illustrator 18.1.0, SVG Export Plug-In . SVG Version: 6.00 Build 0)  -->
<svg version="1.1" baseProfile="tiny" id="Layer_1" xmlns="http://www.w3.org/2000/svg" xmlns:xlink="http://www.w3.org/1999/xlink"
	 x="0px" y="0px" viewBox="519.2 1182 704.5 518.1" xml:space="preserve">
<path fill="#877C68" d="M1118.7,1233.4c89,65.7,126.3,180.4,93,285.8c-34.1,107.9-129.6,178.2-246,180.4
	c-36.9,0.7-73.9,0.1-110.9,0.1c0-0.1,0-0.2,0-0.3c-42.8,0-85.7,1.7-128.4-0.3c-117.2-5.8-206.7-100.8-207.2-217.9
	c-0.4-118.5,86.3-213.2,205-218.5c34.9-1.5,61.4-11.1,89.5-31.4C906.3,1164,1028,1166.5,1118.7,1233.4z M1091.2,1606.1
	c72.4-56.3,99.8-150,68.9-235.3c-29.3-80.9-112.3-139.4-201.8-139c-31.9-2.1-64.3,10.9-95.3,27.7c-4.4,2.4-10.6,5.2-14.9,8.9
	l36.3,28.7c7.5-2.2,15.1-6.4,22.6-8.9c81.3-26.3,161.2,3.5,200.1,74.5c38.5,70.3,22.3,154.4-39.7,205.3
	c-64.5,53.1-151.6,49.8-218-9.8c-31.8-28.6-61-60.1-91.8-89.8c-11.4-10.9-24.2-22.6-39.5-6c-12.8,13.8-3.2,25.9,6.5,35.4
	c41.7,40.7,78.3,86.9,127.4,119.4C928,1667.4,1018.6,1662.7,1091.2,1606.1z M925.5,1457.3c14.1-14.8,0.5-28.7-10.6-39.8
	c-23.5-23.2-45.7-48.2-71.5-68.4c-57.5-45.1-121-49.7-185.5-16.3c-60.7,31.4-95.8,99.2-88.5,164.5c7.8,69.6,55.9,125.4,124.9,145.9
	c25.4,7.5,51,8.6,79.1,6.6l-20.4-40.9c-8.1-2.8-16.8-4.4-26.3-5.5c-60.6-7.2-103.1-47.9-111.1-103.2c-8-55.5,14-99.1,62-127.9
	c46.8-28,105.9-19.5,150.4,20.7c18.7,16.8,35.7,35.7,53.9,53.2C894.2,1458,908,1475.4,925.5,1457.3z"/>
</svg>
