<?xml version="1.0" encoding="utf-8"?>
<!-- Generator: Adobe Illustrator 18.1.0, SVG Export Plug-In . SVG Version: 6.00 Build 0)  -->
<svg version="1.1" baseProfile="tiny" id="Layer_1" xmlns="http://www.w3.org/2000/svg" xmlns:xlink="http://www.w3.org/1999/xlink"
	 x="0px" y="0px" viewBox="0 292.3 792 646.8" xml:space="preserve">
<path fill="#EAB08D" d="M292.2,859.4V644c0-13.2,10.7-23.9,23.9-23.9h322.3c13.2,0,23.9,10.7,23.9,23.9v159
	c37.6-52.9,59.8-117.5,59.8-187.4c0-102.1-47.3-193.1-121.2-252.4v211.3h16.8c3.9,0,7.1,3.2,7.1,7.1v6.5c0,9.7-7.9,17.5-17.5,17.5
	H174.4c-9.7,0-17.5-7.9-17.5-17.5v-6.5c0-3.9,3.2-7.1,7.1-7.1h20.6V373.2c-67,59.3-109.3,145.9-109.3,242.4
	c0,63.8,18.5,123.4,50.4,173.5V643.4c0-11.3,9.2-20.5,20.5-20.5H255c11.3,0,20.5,9.2,20.5,20.5v221.1c0,11.3-9.2,20.5-20.5,20.5
	h-35.4c51.2,34.1,112.8,54,178.9,54c67.3,0,129.8-20.5,181.5-55.7H316C302.9,883.3,292.2,872.6,292.2,859.4z"/>
<path fill="#EAB08D" d="M398.6,292.1c-58.5,0-113.3,15.5-160.6,42.6h321.2C511.8,307.7,457,292.1,398.6,292.1z"/>
<path fill="#3F9D83" d="M255,628.9H146.1c-8,0-14.5,6.5-14.5,14.5v221.1c0,8,6.5,14.5,14.5,14.5H255c8,0,14.5-6.5,14.5-14.5V643.4
	C269.5,635.4,263,628.9,255,628.9z M204.7,874.5c-1.4,0.8-3,1.3-4.8,1.3c-5.2,0-9.5-4.2-9.5-9.5c0-1,0.1-1.9,0.4-2.8
	c1.2-3.9,4.8-6.6,9-6.6c5.2,0,9.5,4.2,9.5,9.5C209.4,869.8,207.5,872.8,204.7,874.5z M262.9,847.5H139.4V654.1h123.5V847.5z"/>
<path fill="#FFFFFF" d="M173.2,847.5h-33.7v-38.4C149.6,822.8,160.9,835.7,173.2,847.5z"/>
<path fill="#FFFFFF" d="M262.9,654.1v193.5h-89.8c-12.2-11.9-23.5-24.7-33.7-38.4V654.1H262.9z"/>
<path fill="#3F9D83" d="M209.4,866.3c0,3.5-1.9,6.5-4.7,8.2c-1.4,0.8-3,1.3-4.8,1.3c-5.2,0-9.5-4.2-9.5-9.5c0-1,0.1-1.9,0.4-2.8
	c1.2-3.9,4.8-6.6,9-6.6C205.1,856.8,209.4,861.1,209.4,866.3z"/>
<path fill="#3F9D83" d="M656.2,859.4v-48.3c-10.9,14.4-23,27.8-36.1,40.1v8.1h-8.9c-7.3,6.4-14.8,12.4-22.7,18.1h49.8
	C648.2,877.3,656.2,869.3,656.2,859.4z"/>
<path fill="#3F9D83" d="M325.2,859.3V648.4h294.8v202.8c13.1-12.3,25.2-25.8,36.1-40.1V644c0-9.9-8-17.9-17.9-17.9H316
	c-9.9,0-17.9,8-17.9,17.9v215.5c0,9.9,8,17.9,17.9,17.9h272.5c7.8-5.7,15.4-11.7,22.7-18.1H325.2z M638.4,743.7
	c5.2,0,9.5,4.2,9.5,9.5s-4.2,9.5-9.5,9.5s-9.5-4.2-9.5-9.5S633.1,743.7,638.4,743.7z"/>
<path fill="#FFFFFF" d="M620.1,859.3v-8.1c-2.9,2.7-5.9,5.4-8.9,8.1H620.1z"/>
<circle fill="#FFFFFF" cx="638.4" cy="753.2" r="9.5"/>
<circle fill="#FFFFFF" cx="199.4" cy="863.2" r="9.5"/>
<rect x="205" y="362.9" fill="#FFFFFF" width="377.7" height="211.6"/>
<rect x="184.5" y="574.5" fill="#FFFFFF" width="3" height="3"/>
<rect x="597.8" y="574.5" fill="#FFFFFF" width="3" height="3"/>
<path fill="#3F9D83" d="M617.6,580.5h-16.8v-3h-3v-3h-3V351c0-5.7-4.6-10.3-10.3-10.3H200.7c-5.7,0-10.3,4.6-10.3,10.3v223.4h-3v3
	h-3v3h-20.5c-0.6,0-1.1,0.5-1.1,1.1v6.5c0,6.3,5.2,11.5,11.5,11.5h432.8c6.3,0,11.5-5.2,11.5-11.5v-6.5
	C618.7,581,618.2,580.5,617.6,580.5z M582.8,574.5H205V362.9h377.7V574.5z"/>
<circle fill="#FFFFFF" cx="395.1" cy="352.2" r="3.1"/>
<rect x="325.2" y="648.4" fill="#FFFFFF" width="294.8" height="210.8"/>
</svg>
