<?xml version="1.0" encoding="utf-8"?>
<!-- Generator: Adobe Illustrator 18.1.0, SVG Export Plug-In . SVG Version: 6.00 Build 0)  -->
<svg version="1.1" id="Layer_1" xmlns="http://www.w3.org/2000/svg" xmlns:xlink="http://www.w3.org/1999/xlink" x="0px" y="0px"
	 viewBox="130.1 851.1 791.9 791.9" enable-background="new 130.1 851.1 791.9 791.9" xml:space="preserve">
<path fill="#EAB08D" d="M891.1,1400.6v85.4c0,17.1-13.9,31.1-31.1,31.1h-44.2C847.3,1483.2,873,1444,891.1,1400.6z"/>
<path fill="#EAB08D" d="M891.1,1008.5v85.1c-12.8-30.5-29.3-59-49.1-85.1H891.1z"/>
<path fill="#EAB08D" d="M164.2,1008.5H210c-18.1,23.9-33.6,50-45.9,77.7V1008.5z"/>
<path fill="#EAB08D" d="M236.4,1517h-41.1c-17.1,0-31.1-13.9-31.1-31.1v-78C182.2,1448.3,206.6,1485.1,236.4,1517z"/>
<path fill="#FFFFFF" d="M904.4,1130c11.5,37,17.6,76.4,17.6,117.1c0,40.9-6.2,80.1-17.6,117.1V1130z"/>
<path fill="#31A18A" d="M904.4,1364.2v121.7c0,24.5-19.9,44.4-44.4,44.4h-57.2c4.4-4.3,8.7-8.7,13-13.3h44.4
	c17.1,0,31.1-13.9,31.1-31.1v-85.4C896.1,1388.8,900.6,1376.6,904.4,1364.2z"/>
<path fill="#31A18A" d="M904.4,1130v234.2c-3.8,12.4-8.3,24.6-13.3,36.4v-307.1C896.1,1105.4,900.6,1117.6,904.4,1130z"/>
<path fill="#31A18A" d="M904.4,995.2v134.7c-3.8-12.4-8.3-24.6-13.3-36.4v-85.1h5.5V995h7.8V995.2z"/>
<path fill="#31A18A" d="M904.4,972.9v22.3h-7.7h-5.5v-22.3c0-17.1-13.9-31.1-31.1-31.1h-81.7c-5.5-4.6-11.2-9-17-13.3h98.7
	C884.6,928.7,904.4,948.6,904.4,972.9z"/>
<rect x="891.1" y="995.2" fill="#31A18A" width="5.5" height="13.3"/>
<path fill="#31A18A" d="M891.1,995.2v13.3H842c-3.4-4.4-6.9-8.8-10.5-13.3H891.1z"/>
<path fill="#31A18A" d="M860.2,942c17.1,0,31.1,13.9,31.1,31.1v22.3h-59.6c-2.5-2.9-5-5.9-7.5-8.8h17.1c2.5,0,4.6-2.1,4.6-4.6v-21.8
	c0-2.5-2.1-4.6-4.6-4.6h-21.7c-2.5,0-4.6,2.1-4.6,4.6v16.2c-2.9-3.1-5.9-6.2-8.8-9.1v-7.1c0-2.5-2.1-4.6-4.6-4.6h-7.5
	c-5-4.7-10.3-9.1-15.5-13.6H860.2z"/>
<path fill="#FFFFFF" d="M845.8,960.1v21.7c0,2.5-2.1,4.6-4.6,4.6h-17.1c-2.9-3.4-6-6.8-9.1-10.2v-16.2c0-2.5,2.1-4.6,4.6-4.6h21.7
	C843.8,955.5,845.8,957.6,845.8,960.1z"/>
<path fill="#31A18A" d="M842.2,1008.5H210c3.4-4.4,6.9-8.8,10.5-13.3h405.3h205.9C835.2,999.6,838.8,1004,842.2,1008.5z"/>
<path fill="#31A18A" d="M831.7,995.2H625.8v-12.1c4,0,7.7-1.6,10.3-4.3c2.7-2.7,4.3-6.3,4.3-10.3c0-8.1-6.5-14.6-14.6-14.6V942
	h152.6c5.3,4.4,10.5,8.8,15.5,13.6h-14.2c-2.5,0-4.6,2.1-4.6,4.6v21.7c0,2.5,2.1,4.6,4.6,4.6h21.7c2.5,0,4.6-2.1,4.6-4.6V967
	c2.9,2.9,5.9,6,8.8,9.1v5.5c0,2.5,2.1,4.6,4.6,4.6h4.6C826.7,989.3,829.2,992.2,831.7,995.2z M764.1,981.8v-21.7
	c0-2.5-2.1-4.6-4.6-4.6h-21.7c-2.5,0-4.6,2.1-4.6,4.6v21.7c0,2.5,2.1,4.6,4.6,4.6h21.7C762.1,986.3,764.1,984.3,764.1,981.8z"/>
<path fill="#FFFFFF" d="M824.2,986.3h-4.6c-2.5,0-4.6-2.1-4.6-4.6v-5.5C818.1,979.6,821.2,983,824.2,986.3z"/>
<path fill="#31A18A" d="M823.9,1381.6v93.5c0,2.8-2.4,5.2-5.2,5.2H665.5c-2.8,0-5.2-2.4-5.2-5.2v-93.5c0-2.8,2.4-5.2,5.2-5.2h153.2
	C821.5,1376.4,823.9,1378.8,823.9,1381.6z"/>
<path fill="#31A18A" d="M823.9,1218v93.5c0,2.8-2.4,5.2-5.2,5.2H665.5c-2.8,0-5.2-2.4-5.2-5.2V1218c0-2.8,2.4-5.2,5.2-5.2h153.2
	C821.5,1212.9,823.9,1215.2,823.9,1218z"/>
<path fill="#31A18A" d="M823.9,1057.9v93.5c0,2.8-2.4,5.2-5.2,5.2H665.5c-2.8,0-5.2-2.4-5.2-5.2v-93.5c0-2.8,2.4-5.2,5.2-5.2h153.2
	C821.5,1052.7,823.9,1054.9,823.9,1057.9z"/>
<path fill="#31A18A" d="M236.4,1517h579.3c-4.3,4.6-8.6,9-13,13.3H249.4C245,1526,240.6,1521.6,236.4,1517z"/>
<path fill="#FFFFFF" d="M806.2,967.2v14.7c0,2.5-2.1,4.6-4.6,4.6h-21.7c-2.5,0-4.6-2.1-4.6-4.6v-21.8c0-2.5,2.1-4.6,4.6-4.6h14.2
	C798.1,959.2,802.2,963.2,806.2,967.2z"/>
<path fill="#FFFFFF" d="M806.2,960.1v7.1c-4-4-8-7.8-12.1-11.7h7.5C804.1,955.5,806.2,957.6,806.2,960.1z"/>
<path fill="#FFFFFF" d="M249.4,1530.3h553.5c-71.4,69.8-169,112.7-276.7,112.7S320.8,1600,249.4,1530.3z"/>
<path fill="#31A18A" d="M778.4,942H625.8h-352c5.5-4.6,11.2-9,17-13.3h470.8C767.2,933,772.8,937.4,778.4,942z"/>
<path fill="#FFFFFF" d="M764.1,960.1v21.7c0,2.5-2.1,4.6-4.6,4.6h-21.7c-2.5,0-4.6-2.1-4.6-4.6v-21.7c0-2.5,2.1-4.6,4.6-4.6h21.7
	C762.1,955.5,764.1,957.6,764.1,960.1z"/>
<path fill="#FFFFFF" d="M761.5,928.7H290.7c65.8-48.7,147.2-77.6,235.4-77.6S695.7,879.9,761.5,928.7z"/>
<path fill="#31A18A" d="M640.4,1398v20.5c0,2.4-1.9,4.3-4.3,4.3H481.3c-2.4,0-4.3-1.9-4.3-4.3V1398c0-2.4,1.9-4.3,4.3-4.3h154.9
	C638.5,1393.7,640.4,1395.6,640.4,1398z"/>
<path fill="#31A18A" d="M640.4,1345v20.5c0,2.4-1.9,4.3-4.3,4.3H481.3c-2.4,0-4.3-1.9-4.3-4.3V1345c0-2.4,1.9-4.3,4.3-4.3h154.9
	C638.5,1340.6,640.4,1342.5,640.4,1345z"/>
<path fill="#31A18A" d="M640.4,1291.9v20.5c0,2.4-1.9,4.3-4.3,4.3H481.3c-2.4,0-4.3-1.9-4.3-4.3v-20.5c0-2.4,1.9-4.3,4.3-4.3h154.9
	C638.5,1287.7,640.4,1289.6,640.4,1291.9z"/>
<path fill="#31A18A" d="M640.4,1232.2v20.5c0,2.4-1.9,4.4-4.3,4.4H481.3c-2.4,0-4.3-1.9-4.3-4.4v-20.5c0-2.4,1.9-4.3,4.3-4.3h154.9
	C638.5,1227.9,640.4,1229.8,640.4,1232.2z"/>
<path fill="#31A18A" d="M640.4,1179.3v20.5c0,2.4-1.9,4.4-4.3,4.4H232.3c-2.4,0-4.3-1.9-4.3-4.4v-20.5c0-2.4,1.9-4.3,4.3-4.3h403.8
	C638.5,1174.8,640.4,1176.9,640.4,1179.3z"/>
<path fill="#31A18A" d="M640.4,1117.3v20.5c0,2.4-1.9,4.3-4.3,4.3H232.3c-2.4,0-4.3-1.9-4.3-4.3v-20.5c0-2.4,1.9-4.3,4.3-4.3h403.8
	C638.5,1113,640.4,1115,640.4,1117.3z"/>
<path fill="#31A18A" d="M636,1453.3c2.4,0,4.3,1.9,4.3,4.3v20.5c0,2.4-1.9,4.3-4.3,4.3H481.1c-2.4,0-4.3-1.9-4.3-4.3v-20.5
	c0-2.4,1.9-4.3,4.3-4.3H636z"/>
<path fill="#31A18A" d="M640.4,1065.7c0,4-1.6,7.7-4.3,10.3c-2.7,2.7-6.3,4.3-10.3,4.3H242.5c-8.1,0-14.6-6.5-14.6-14.6
	c0-4,1.6-7.7,4.3-10.3c2.7-2.7,6.3-4.3,10.3-4.3h383.3C633.9,1051.1,640.4,1057.7,640.4,1065.7z"/>
<path fill="#FFFFFF" d="M625.8,953.9c8.1,0,14.6,6.5,14.6,14.6c0,4-1.6,7.7-4.3,10.3c-2.7,2.7-6.3,4.3-10.3,4.3H242.5
	c-3.4,0-6.3-1.2-8.8-2.9c8.4-9.1,17.1-17.8,26.3-26.3L625.8,953.9L625.8,953.9z"/>
<path fill="#31A18A" d="M625.8,942v11.9H259.9c4.6-4.1,9.1-8.1,13.9-11.9H625.8z"/>
<path fill="#EAB08D" d="M476.8,1478.2c0,2.4,1.9,4.3,4.3,4.3H636c2.4,0,4.3-1.9,4.3-4.3v-20.5c0-2.4-1.9-4.3-4.3-4.3H481.1
	c-2.4,0-4.3,1.9-4.3,4.3V1478.2z M891.1,1093.6v307.2c-18.1,43.2-44,82.6-75.4,116.4H236.4c-29.8-31.9-54.3-68.7-72.3-109.1v-321.7
	c12.4-27.7,27.7-53.8,45.9-77.7h632.1C861.8,1034.6,878.3,1063,891.1,1093.6z M823.9,1475.1v-93.5c0-2.8-2.4-5.2-5.2-5.2H665.5
	c-2.8,0-5.2,2.4-5.2,5.2v93.5c0,2.8,2.4,5.2,5.2,5.2h153.2C821.5,1480.3,823.9,1477.9,823.9,1475.1z M823.9,1311.6V1218
	c0-2.8-2.4-5.2-5.2-5.2H665.5c-2.8,0-5.2,2.4-5.2,5.2v93.5c0,2.8,2.4,5.2,5.2,5.2h153.2C821.5,1316.7,823.9,1314.5,823.9,1311.6z
	 M823.9,1151.4v-93.5c0-2.8-2.4-5.2-5.2-5.2H665.5c-2.8,0-5.2,2.4-5.2,5.2v93.5c0,2.8,2.4,5.2,5.2,5.2h153.2
	C821.5,1156.5,823.9,1154.2,823.9,1151.4z M640.4,1418.5V1398c0-2.4-1.9-4.3-4.3-4.3H481.3c-2.4,0-4.3,1.9-4.3,4.3v20.5
	c0,2.4,1.9,4.3,4.3,4.3h154.9C638.5,1422.9,640.4,1420.8,640.4,1418.5z M640.4,1365.5V1345c0-2.4-1.9-4.3-4.3-4.3H481.3
	c-2.4,0-4.3,1.9-4.3,4.3v20.5c0,2.4,1.9,4.3,4.3,4.3h154.9C638.5,1369.8,640.4,1367.9,640.4,1365.5z M640.4,1312.4v-20.5
	c0-2.4-1.9-4.3-4.3-4.3H481.3c-2.4,0-4.3,1.9-4.3,4.3v20.5c0,2.4,1.9,4.3,4.3,4.3h154.9C638.5,1316.7,640.4,1314.8,640.4,1312.4z
	 M640.4,1252.7v-20.5c0-2.4-1.9-4.3-4.3-4.3H481.3c-2.4,0-4.3,1.9-4.3,4.3v20.5c0,2.4,1.9,4.4,4.3,4.4h154.9
	C638.5,1257.1,640.4,1255.2,640.4,1252.7z M640.4,1199.8v-20.5c0-2.4-1.9-4.3-4.3-4.3H232.3c-2.4,0-4.3,1.9-4.3,4.3v20.5
	c0,2.4,1.9,4.4,4.3,4.4h403.8C638.5,1204,640.4,1202.1,640.4,1199.8z M640.4,1137.8v-20.5c0-2.4-1.9-4.3-4.3-4.3H232.3
	c-2.4,0-4.3,1.9-4.3,4.3v20.5c0,2.4,1.9,4.3,4.3,4.3h403.8C638.5,1142.2,640.4,1140.3,640.4,1137.8z M636.1,1076
	c2.7-2.7,4.3-6.3,4.3-10.3c0-8.1-6.5-14.6-14.6-14.6H242.5c-4,0-7.7,1.6-10.3,4.3s-4.3,6.3-4.3,10.3c0,8.1,6.5,14.6,14.6,14.6h383.3
	C629.8,1080.3,633.5,1078.7,636.1,1076z M446.3,1474.7v-238.8c0-3.2-2.7-5.9-5.9-5.9H234.1c-3.2,0-5.8,2.7-5.8,5.9v238.8
	c0,3.2,2.7,5.8,5.8,5.8h206.3C443.7,1480.6,446.3,1477.9,446.3,1474.7z"/>
<path fill="#31A18A" d="M446.3,1235.9v238.8c0,3.2-2.7,5.8-5.9,5.8H234.1c-3.2,0-5.8-2.7-5.8-5.8v-238.8c0-3.2,2.7-5.9,5.8-5.9
	h206.3C443.7,1230.1,446.3,1232.6,446.3,1235.9z"/>
<path fill="#31A18A" d="M195.3,928.7h95.4c-5.8,4.3-11.4,8.7-17,13.3h-78.6c-17.1,0-31.1,13.9-31.1,31.1v22.3h-5.5v13.3h-7.7v-35.5
	C150.9,948.6,170.8,928.7,195.3,928.7z"/>
<path fill="#31A18A" d="M195.3,942h78.6c-4.7,3.8-9.3,8-13.9,11.9h-17.4c-4,0-7.7,1.6-10.3,4.3c-2.7,2.7-4.3,6.3-4.3,10.3
	c0,4.7,2.2,9,5.8,11.7c-4.6,4.9-8.8,10-13.1,15.2h-56.3v-22.3C164.2,955.8,178,942,195.3,942z"/>
<path fill="#FFFFFF" d="M242.5,953.9h17.4c-9.1,8.3-17.8,17.1-26.3,26.3c-3.5-2.7-5.8-6.9-5.8-11.7c0-4,1.6-7.7,4.3-10.3
	C234.8,955.5,238.5,953.9,242.5,953.9z"/>
<path fill="#31A18A" d="M249.4,1530.3h-54.1c-24.5,0-44.4-19.9-44.4-44.4v-111.9c3.8,11.5,8.3,22.9,13.3,33.9v78
	c0,17.1,13.9,31.1,31.1,31.1h41.1C240.6,1521.6,245,1526,249.4,1530.3z"/>
<path fill="#31A18A" d="M242.5,983.1h383.3v12.1H220.5c4.3-5.2,8.7-10.2,13.1-15.2C236.1,981.9,239.2,983.1,242.5,983.1z"/>
<path fill="#31A18A" d="M164.2,995.2h56.3c-3.5,4.4-7.1,8.7-10.5,13.3h-45.9L164.2,995.2L164.2,995.2z"/>
<path fill="#31A18A" d="M164.2,1086.3V1408c-4.9-11.1-9.3-22.4-13.3-33.9v-254C154.9,1108.6,159.2,1097.3,164.2,1086.3z"/>
<path fill="#31A18A" d="M164.2,1008.5v77.7c-4.9,11.1-9.3,22.4-13.3,33.9v-111.6h7.7H164.2z"/>
<rect x="158.6" y="995.2" fill="#31A18A" width="5.5" height="13.3"/>
<path fill="#FFFFFF" d="M150.9,1120.1v253.8c-13.4-39.8-20.8-82.6-20.8-127C130.1,1202.7,137.5,1160.1,150.9,1120.1z"/>
<rect x="130.1" y="851.1" fill="none" width="791.9" height="791.9"/>
</svg>
