<?xml version="1.0" encoding="utf-8"?>
<!-- Generator: Adobe Illustrator 18.1.0, SVG Export Plug-In . SVG Version: 6.00 Build 0)  -->
<svg version="1.1" baseProfile="tiny" id="Layer_1" xmlns="http://www.w3.org/2000/svg" xmlns:xlink="http://www.w3.org/1999/xlink"
	 x="0px" y="0px" viewBox="0 292.3 792 646.8" xml:space="preserve">
<path fill="#EAB08D" d="M353.4,768.2C353.4,768.2,353.4,768.2,353.4,768.2c0.1-0.1,0.2-0.1,0.2-0.2c0.7-0.7,1.4-1.4,2.1-2.1
	c1.4-1.5,2.7-3.1,4.1-4.7c3-3.5,6-7.2,9.3-10.5c6.2-6.2,15-12.4,23.8-9.2V448.1h-23.5V364c-54.4,3-107.5,13.9-158.5,32.3l18,40.2
	l-24.6,11.1l-18.6-41.5c-0.8,0.3-1.6,0.7-2.5,1C134.1,428,88.6,455.4,47.5,489l57.6,57.6l-16,16L324.5,798
	c7.9-6.8,16.7-12.1,26.1-15.8C347.8,778,347.8,771.7,353.4,768.2z"/>
<path fill="#3F9D83" d="M747.4,482.3c-38.9-30.6-81.6-55.7-127.5-75.1c-6.2-2.6-12.4-5.1-18.7-7.5L580,450.3l-24.9-10.4l20.6-49.2
	c-51.5-16.8-105-26-159.8-27.4v84.8h-23v294.5c1.9-1,4.3-1.4,6.8-0.8c4.6,1.1,8.9,3.1,12.8,5.7c1,0.4,2,0.8,3.1,1.4
	c5.4,2.4,10.8,5.4,15.1,9.6c3.8,3.8,6.2,8.8,6.7,13.8c2,2.2,3,5.4,2.7,8.2c0.5,0.9,1,1.7,1.4,2.5c0.3,0.6,0.6,1.2,0.8,1.9l39.1,4.1
	l234.6-234.6l-20.4-20.3L747.4,482.3z"/>
<g>
	<path fill="#FFFFFF" d="M792,503.6c-2.1,4-7.5,5.9-8.3,9.8c-0.3-0.3-0.6-0.5-0.8-0.8L728.5,567l-12.5-12.5l-20.4-20.3l51.8-51.8
		c-38.9-30.6-81.6-55.7-127.5-75.1c-6.2-2.6-12.4-5.1-18.7-7.5L580,450.3l-24.9-10.4l20.6-49.2c-51.5-16.8-105-26-159.8-27.4v84.8
		h-46.5V364c-54.4,3-107.5,13.9-158.5,32.3l18,40.2l-24.6,11.1l-18.6-41.5c-0.8,0.3-1.6,0.7-2.5,1C134.1,428,88.6,455.4,47.5,489
		l57.6,57.6l-32.9,32.9l-57.7-57.7c-2.6-4.3-6.9-6.6-9.8-10.7c50.3-48,110-87.9,173.9-114.9c70.6-29.9,145.6-45,223-45
		c77.3,0,152.4,15.2,223,45C685,421.7,743.7,459.3,792,503.6z"/>
</g>
<path fill="#FFFFFF" d="M463.5,745.3l204.3-295.5L652.3,438L423.7,715.1c-7.4-2.9-15.1-4.7-22.9-5.5c-24.4-2.6-49.3,4.9-68.3,21.5
	c-4.6,4-8.9,8.6-12.8,13.6c-30.1,39.6-22.3,96,17.2,126.1c39.6,30,96,22.3,126.1-17.3c24.4-32.2,23.9-75.5,1.6-106.7
	C464.3,746.3,463.9,745.8,463.5,745.3z M392.6,836.1c-19.9,0-36-16.1-36-36c0-19.9,16.1-36,36-36c19.9,0,36,16.1,36,36
	C428.5,820,412.4,836.1,392.6,836.1z"/>
</svg>
