<?xml version="1.0" encoding="utf-8"?>
<!-- Generator: Adobe Illustrator 18.1.0, SVG Export Plug-In . SVG Version: 6.00 Build 0)  -->
<svg version="1.1" id="Layer_1" xmlns="http://www.w3.org/2000/svg" xmlns:xlink="http://www.w3.org/1999/xlink" x="0px" y="0px"
	 viewBox="343.8 772.3 105 108.5" enable-background="new 343.8 772.3 105 108.5" xml:space="preserve">
<rect x="340.3" y="772.3" fill="#3E9E84" width="111.3" height="111.3"/>
<g>
	<path d="M384.4,840.8c1.8,1.1,5.8,2.9,10.1,2.9c7.9,0,10.4-5,10.3-8.8c-0.1-6.4-5.8-9.1-11.8-9.1h-3.4v-4.6h3.4
		c4.5,0,10.2-2.3,10.2-7.7c0-3.6-2.3-6.9-8-6.9c-3.6,0-7.1,1.6-9.1,3l-1.6-4.5c2.4-1.8,7-3.5,11.9-3.5c9,0,13,5.3,13,10.9
		c0,4.7-2.8,8.7-8.4,10.7v0.1c5.6,1.1,10.2,5.3,10.2,11.7c0,7.3-5.7,13.7-16.6,13.7c-5.1,0-9.6-1.6-11.8-3.1L384.4,840.8z"/>
</g>
</svg>
