<?xml version="1.0" encoding="utf-8"?>
<!-- Generator: Adobe Illustrator 18.1.0, SVG Export Plug-In . SVG Version: 6.00 Build 0)  -->
<svg version="1.1" id="Layer_1" xmlns="http://www.w3.org/2000/svg" xmlns:xlink="http://www.w3.org/1999/xlink" x="0px" y="0px"
	 viewBox="-18 518 810 810" enable-background="new -18 518 810 810" xml:space="preserve">
<path fill="#EAB08D" d="M340.7,1056.8L340.7,1056.8c0.1-0.1,0.2-0.1,0.2-0.2c0.7-0.7,1.4-1.4,2.1-2.1c1.4-1.5,2.7-3.1,4.1-4.7
	c3-3.5,6-7.2,9.3-10.5c6.2-6.2,15-12.4,23.8-9.2V736.7h-23.5v-84.1c-54.4,3-107.5,13.9-158.5,32.3l18,40.2l-24.6,11.1L173,694.7
	c-0.8,0.3-1.6,0.7-2.5,1c-49.1,20.9-94.6,48.3-135.7,81.9l57.6,57.6l-16,16l235.4,235.4c7.9-6.8,16.7-12.1,26.1-15.8
	C335.1,1066.6,335.1,1060.3,340.7,1056.8z"/>
<path fill="#3F9D83" d="M734.7,770.9c-38.9-30.6-81.6-55.7-127.5-75.1c-6.2-2.6-12.4-5.1-18.7-7.5l-21.2,50.6l-24.9-10.4l20.6-49.2
	c-51.5-16.8-105-26-159.8-27.4v84.8h-23v294.5c1.9-1,4.3-1.4,6.8-0.8c4.6,1.1,8.9,3.1,12.8,5.7c1,0.4,2,0.8,3.1,1.4
	c5.4,2.4,10.8,5.4,15.1,9.6c3.8,3.8,6.2,8.8,6.7,13.8c2,2.2,3,5.4,2.7,8.2c0.5,0.9,1,1.7,1.4,2.5c0.3,0.6,0.6,1.2,0.8,1.9l39.1,4.1
	L703.3,843l-20.4-20.3L734.7,770.9z"/>
<g>
	<path fill="#FFFFFF" d="M779.3,792.2c-2.1,4-7.5,5.9-8.3,9.8c-0.3-0.3-0.6-0.5-0.8-0.8l-54.4,54.4l-12.5-12.5l-20.4-20.3l51.8-51.8
		c-38.9-30.6-81.6-55.7-127.5-75.1c-6.2-2.6-12.4-5.1-18.7-7.5l-21.2,50.5l-24.9-10.4l20.6-49.2c-51.5-16.8-105-26-159.8-27.4v84.8
		h-46.5v-84.1c-54.4,3-107.5,13.9-158.5,32.3l18,40.2l-24.6,11.1L173,694.7c-0.8,0.3-1.6,0.7-2.5,1c-49.1,20.9-94.6,48.3-135.7,81.9
		l57.6,57.6l-32.9,32.9L1.8,810.4c-2.6-4.3-6.9-6.6-9.8-10.7c50.3-48,110-87.9,173.9-114.9c70.6-29.9,145.6-45,223-45
		c77.3,0,152.4,15.2,223,45C672.3,710.3,731,747.9,779.3,792.2z"/>
</g>
<path fill="#FFFFFF" d="M439.8,1033.9l204.3-295.5l-15.5-11.8L400,1003.7c-7.4-2.9-15.1-4.7-22.9-5.5c-24.4-2.6-49.3,4.9-68.3,21.5
	c-4.6,4-8.9,8.6-12.8,13.6c-30.1,39.6-22.3,96,17.2,126.1c39.6,30,96,22.3,126.1-17.3c24.4-32.2,23.9-75.5,1.6-106.7
	C440.6,1034.9,440.2,1034.4,439.8,1033.9z M368.9,1124.7c-19.9,0-36-16.1-36-36s16.1-36,36-36s36,16.1,36,36
	C404.8,1108.6,388.7,1124.7,368.9,1124.7z"/>
<rect x="-19" y="639.8" fill="none" width="787.3" height="537.9"/>
<rect x="-18" y="518" fill="none" width="810" height="810"/>
</svg>
