<?xml version="1.0" encoding="utf-8"?>
<!-- Generator: Adobe Illustrator 18.1.0, SVG Export Plug-In . SVG Version: 6.00 Build 0)  -->
<svg version="1.1" baseProfile="tiny" id="Layer_1" xmlns="http://www.w3.org/2000/svg" xmlns:xlink="http://www.w3.org/1999/xlink"
	 x="0px" y="0px" viewBox="535.1 1185.6 700.5 538.2" xml:space="preserve">
<path fill="#877C68" d="M1003.5,1238.5l-58.7,7.6c-5,0.6-8.5,5.2-7.8,10.1l4.5,35.3c-18.1,5.3-35.3,13-51,23l-26.1-27.1
	c-3.5-3.6-9.2-3.7-12.8-0.2l-42.6,41.1c-3.6,3.5-3.7,9.2-0.2,12.8l25.6,26.6c-11.8,16.5-21.1,35-27.4,55.1l-35.9-4.9
	c-5-0.7-9.6,2.8-10.2,7.8l-8,58.6c-0.7,5,2.8,9.6,7.8,10.2l37.8,5.2c1.7,20.6,6.6,40.5,14.3,59l-30.8,22.1c-4.1,3-5,8.6-2.1,12.7
	l34.5,48.1c2.9,4.1,8.6,5,12.7,2.1l28.5-20.5c15.2,15.3,32.9,28.3,52.6,38.1l-9.2,37.1c-1.2,4.8,1.8,9.8,6.7,11l57.4,14.2
	c4.8,1.2,9.8-1.8,11-6.6l8.7-35.3c20,1.5,39.6-0.1,58.3-4.4l13.7,33.9c1.9,4.6,7.2,6.9,11.8,5l54.8-22.2c4.6-1.9,6.9-7.2,5-11.8
	l-14.8-36.5c15.5-10.9,29.4-24,41.2-38.9l31.2,17.5c4.4,2.5,9.9,0.9,12.4-3.5l29-51.6c2.5-4.4,0.9-9.9-3.5-12.4l-33.7-18.9
	c2.6-9,4.6-18.4,5.9-28c1.9-13.6,2.3-27,1.4-40.1l33.1-8.4c4.9-1.3,7.8-6.2,6.6-11l-14.5-57.4c-1.2-4.9-6.2-7.8-11-6.6l-34.1,8.6
	c-8-16.3-18.2-31.4-30.3-44.9l24.1-37.7c2.7-4.2,1.4-9.8-2.8-12.5l-49.8-31.9c-4.2-2.7-9.8-1.5-12.6,2.8l-20.9,32.6
	c-18.3-8.8-38.2-15-59.5-17.9c-1.7-0.2-3.4-0.4-5.1-0.6l-5-38.6C1013,1241.4,1008.5,1237.9,1003.5,1238.5z M1134.1,1501.7
	c-10.4,75.8-80.2,128.9-156,118.5s-128.9-80.2-118.5-156s80.2-128.9,156-118.5C1091.4,1356,1144.4,1425.9,1134.1,1501.7z"/>
<path fill="#877C68" d="M669.4,1185.7l-32.9,5.9c-2.8,0.5-4.6,3.2-4.1,5.9l3.6,19.8c-10.1,3.5-19.5,8.4-28.1,14.4l-15.5-14.5
	c-2.1-1.9-5.3-1.8-7.2,0.2l-22.8,24.4c-1.9,2.1-1.8,5.3,0.2,7.2l15.2,14.2c-6.2,9.7-10.9,20.3-13.8,31.8l-20.4-1.7
	c-2.8-0.2-5.3,1.8-5.5,4.7l-2.8,33.3c-0.2,2.8,1.8,5.3,4.7,5.5l21.4,1.8c1.6,11.6,4.9,22.6,9.7,32.8l-16.7,13.3
	c-2.2,1.8-2.6,5-0.8,7.2l20.8,26.1c1.8,2.2,5,2.6,7.2,0.8l15.5-12.3c9,8.2,19.3,15,30.7,20l-4.1,21.1c-0.5,2.8,1.3,5.5,4.1,6
	l32.8,6.4c2.8,0.5,5.5-1.3,6-4l3.9-20.1c11.3,0.3,22.3-1.2,32.7-4.2l8.7,18.7c1.2,2.6,4.2,3.7,6.8,2.5l30.3-14.1
	c2.6-1.2,3.7-4.2,2.5-6.8L742,1412c8.4-6.6,15.9-14.4,22.1-23.1l18.1,9c2.5,1.3,5.6,0.2,6.9-2.3l14.8-29.9c1.3-2.5,0.2-5.6-2.3-6.9
	l-19.5-9.7c1.2-5.2,2-10.5,2.5-15.9c0.7-7.7,0.5-15.3-0.3-22.7l18.4-5.7c2.7-0.8,4.2-3.7,3.4-6.4l-9.8-31.9
	c-0.8-2.7-3.7-4.2-6.4-3.4l-19,5.8c-5-9-11.2-17.2-18.4-24.4l12.5-21.9c1.4-2.5,0.5-5.6-1.9-7l-29-16.5c-2.5-1.4-5.6-0.5-7,1.9
	l-10.8,19c-10.5-4.5-22-7.3-34-8.4c-1-0.1-1.9-0.1-2.9-0.2l-3.9-21.6C674.8,1187,672.1,1185.2,669.4,1185.7z M750.5,1330.2
	c-3.7,43-41.5,74.9-84.5,71.2c-43-3.7-74.9-41.5-71.2-84.5c3.7-43,41.5-74.9,84.5-71.2C722.3,1249.3,754.2,1287.2,750.5,1330.2z"/>
</svg>
