<?xml version="1.0" encoding="utf-8"?>
<!-- Generator: Adobe Illustrator 18.1.0, SVG Export Plug-In . SVG Version: 6.00 Build 0)  -->
<svg version="1.1" id="Layer_1" xmlns="http://www.w3.org/2000/svg" xmlns:xlink="http://www.w3.org/1999/xlink" x="0px" y="0px"
	 viewBox="0 574 792 792" enable-background="new 0 574 792 792" xml:space="preserve">
<circle fill="#FFFFFF" cx="399.2" cy="950.2" r="323.4"/>
<path fill="#EAB08D" d="M788,1219c2.7-0.4,4-0.9,4-0.9c-3.5-1.3-6.9-2.4-9.9-4c-46.4-20.3-60.1-57.9-63.9-85.1
	c22.5-30.1,36-67.4,36-107.6v-58.6c0-98.6-80.7-179.3-179.3-179.3H474.6c3.5,12.6,5.3,25.9,5.3,39.6v48.2
	c0,81.3-66.5,148.1-148.1,148.1H178.2v2.2c0,98.6,80.7,179.3,179.3,179.3H575c33.2,0,64.3-9.1,91.1-25c5.1,7.1,10.8,13.3,16.8,18.3
	c5.1,4.2,10.2,8,15.5,10.8C734.5,1225.9,775.2,1221.2,788,1219z"/>
<path fill="#3F9D83" d="M94.6,985c20.1,11.9,43.5,18.8,68.3,18.8h163.4c74,0,134.8-60.6,134.8-134.8v-44
	c0-74-60.6-134.8-134.8-134.8H163.1c-74,0-134.8,60.6-134.8,134.8v44c0,30.3,10.2,58.4,27.2,80.9c-2.7,20.3-13,48.4-47.5,63.7
	c-2.4,1.1-5.1,2.2-8,3.1c0,0,1.3,0.2,3.5,0.7c10.2,1.8,41.1,4.9,67.9-11.1l0,0c2.9-1.8,5.7-3.8,8.6-6
	C85.3,996.2,90.2,991.1,94.6,985z"/>
<rect y="574" fill="none" width="792" height="792"/>
</svg>
