<?xml version="1.0" encoding="utf-8"?>
<!-- Generator: Adobe Illustrator 18.1.0, SVG Export Plug-In . SVG Version: 6.00 Build 0)  -->
<svg version="1.1" id="Layer_1" xmlns="http://www.w3.org/2000/svg" xmlns:xlink="http://www.w3.org/1999/xlink" x="0px" y="0px"
	 viewBox="0 0 358.3 297.9" enable-background="new 0 0 358.3 297.9" xml:space="preserve">
<circle fill="#FFFFFF" cx="180.6" cy="150.6" r="146.3"/>
<path fill="#EAB08D" d="M356.5,272.2c1.2-0.2,1.8-0.4,1.8-0.4c-1.6-0.6-3.1-1.1-4.5-1.8c-21-9.2-27.2-26.2-28.9-38.5
	c10.2-13.6,16.3-30.5,16.3-48.7l0-26.5c0-44.6-36.5-81.1-81.1-81.1h-45.4c1.6,5.7,2.4,11.7,2.4,17.9l0,21.8c0,36.8-30.1,67-67,67
	H80.6v1c0,44.6,36.5,81.1,81.1,81.1h98.4c15,0,29.1-4.1,41.2-11.3c2.3,3.2,4.9,6,7.6,8.3c2.3,1.9,4.6,3.6,7,4.9
	C332.3,275.3,350.7,273.2,356.5,272.2z"/>
<path fill="#3F9D83" d="M42.8,166.3c9.1,5.4,19.7,8.5,30.9,8.5l73.9,0c33.5,0,61-27.4,61-61l0-19.9c0-33.5-27.4-61-61-61H73.8
	c-33.5,0-61,27.4-61,61l0,19.9c0,13.7,4.6,26.4,12.3,36.6c-1.2,9.2-5.9,21.9-21.5,28.8c-1.1,0.5-2.3,1-3.6,1.4c0,0,0.6,0.1,1.6,0.3
	c4.6,0.8,18.6,2.2,30.7-5c0,0,0,0,0,0c1.3-0.8,2.6-1.7,3.9-2.7C38.6,171.4,40.8,169.1,42.8,166.3z"/>
</svg>
